<?xml version="1.0" encoding="UTF-8"?>
<svg id="Layer_1" data-name="Layer 1" xmlns="http://www.w3.org/2000/svg" version="1.1" viewBox="0 0 610.7 201.7">
  <defs>
    <style>
      .cls-1 {
        fill: #435daa;
      }

      .cls-1, .cls-2, .cls-3, .cls-4, .cls-5 {
        stroke-width: 0px;
      }

      .cls-2 {
        fill: #415daa;
      }

      .cls-3 {
        fill: #00c300;
      }

      .cls-4 {
        fill: #3cb24d;
      }

      .cls-5 {
        fill: #fff;
      }
    </style>
  </defs>
  <g id="Layer_5" data-name="Layer 5">
    <path class="cls-1" d="M349.6,52.1c-.5.6-.8.9-1.1,1.3-3.1,2.9-6.3,5.9-9.4,8.8-5,4.7-9.9,9.4-14.9,14-.7.7-.8,1.3-.2,2.1,6,8.7,12.1,17.4,18.1,26.1,2.9,4.1,5.7,8.3,8.5,12.4.1.2.2.4.3.8-.6,0-1,.1-1.4.1-5.4,0-10.7,0-16.1,0-1.1,0-1.8-.4-2.4-1.4-4.9-7.9-10-15.9-14.9-23.8-.9-1.4-1.8-2.9-2.7-4.4-.5-.9-1.1-.9-1.8-.2-3.2,3.1-6.5,6.2-9.7,9.4-.5.5-.9,1.5-.9,2.2,0,5.5,0,11,0,16.5,0,1.2-.3,1.7-1.6,1.7-3.8,0-7.6,0-11.4,0-1.1,0-1.4-.4-1.4-1.5,0-20.9,0-41.9,0-62.8,0-1.2.3-1.6,1.5-1.6,3.7,0,7.4,0,11.1,0,1.4,0,1.8.5,1.8,1.9,0,8.2,0,16.5,0,24.7,0,.4.2.9.3,1.3.4-.2.9-.3,1.2-.6,5.6-5.6,11.3-11.1,16.9-16.7,3.2-3.2,6.4-6.5,9.7-9.6.5-.5,1.4-.9,2.1-.9,5.6,0,11.3,0,16.9,0,.4,0,.8.1,1.5.2h0Z"/>
    <path class="cls-1" d="M198.7,117.7c-2.2,0-4.4,0-6.5,0-1,0-1.5-.4-1.9-1.3-1.6-4.2-3.4-8.4-5.2-12.6-.4-1-1.3-1-2.2-1-7.3,0-14.7,0-22,0-.9,0-1.8.1-2.7,0-1.4-.2-2.2.4-2.6,1.7-1.5,4-3.1,7.9-4.6,11.9-.3.9-.8,1.3-1.8,1.3-4.4,0-8.8,0-13.2,0-1.1,0-1.3-.4-.9-1.4,2.2-5.2,4.4-10.4,6.5-15.5,2.1-5.1,4.3-10.2,6.4-15.3,2.1-5.1,4.3-10.3,6.4-15.4,2.3-5.6,4.7-11.2,7.1-16.9.4-1.1,1.1-1.5,2.3-1.5,4.1,0,8.2,0,12.4,0,1.2,0,1.8.3,2.3,1.5,3.3,7.9,6.8,15.7,10.2,23.5,3.8,8.7,7.7,17.4,11.6,26.2,2,4.5,4,9.1,6,13.6.4.9,0,1.1-.8,1.1-2.3,0-4.6,0-6.8,0h0ZM170.5,68.2c-.1,0-.3,0-.4,0-.3.6-.6,1.3-.9,1.9-.8,2-1.6,4.1-2.4,6.1-1.8,4.6-3.7,9.2-5.5,13.8-.6,1.5-.3,1.8,1.2,1.8,5.4,0,10.7,0,16.1,0,1.2,0,1.5-.4,1.1-1.5-.5-1.3-1-2.5-1.6-3.8-1.9-4.6-3.8-9.2-5.7-13.9-.6-1.5-1.3-3-1.9-4.5h0Z"/>
    <path class="cls-1" d="M227.1,84.6c-.1,5,.4,9.6,2.5,13.9,2.1,4.4,5.7,7.1,10.4,8.2,3.2.8,6.3.8,9.4-.2,4.4-1.4,7.4-4.4,9.3-8.6.5-1.1.9-2.3,1.3-3.5.3-.9.7-1.3,1.8-.9,3.8,1.2,7.6,2.3,11.4,3.4,1.1.3,1.3.9,1,1.9-2.5,7.2-6.5,13.2-13.6,16.7-4.2,2.1-8.6,3.2-13.3,3.2-4.3,0-8.5.1-12.7-1.1-5.5-1.5-10.3-4.3-14.2-8.5-2.6-2.8-4.6-5.9-5.9-9.4-1.8-4.8-2.5-9.9-2.4-15,0-5.5.8-10.8,3.1-15.9,3-6.9,7.9-12,14.8-15.2,6.2-2.9,12.7-3.3,19.3-2.9,6.2.4,12,2.4,17,6.4,3.3,2.6,5.4,6,7,9.8.1.3.2.5.3.8.9,2.1.7,2.5-1.5,3-3.7.8-7.4,1.6-11.1,2.5-1,.2-1.3-.2-1.6-1-.9-2.6-2.2-4.8-4.4-6.5-4.2-3.4-9.1-4.1-14.2-3.1-5.3,1.1-9.5,4.1-11.6,9.3-1.6,3.8-2.2,7.9-2,12.1,0,.3,0,.6,0,.6Z"/>
    <path class="cls-1" d="M376,148.3c-.4,1.3-.8,2.5-1.1,3.8-1.4,5.1-2.8,10.3-4.2,15.4-1.2,4.3-2.4,8.6-3.4,12.9-.3,1-.7,1.4-1.7,1.3-2.5,0-4.9,0-7.4,0-1.3,0-1.8-.6-2.1-1.7-1.7-6.4-3.4-12.8-5.1-19.2-1-3.7-1.9-7.4-2.9-11.1-.2-.9-.6-1.8-1.2-2.6,0,.4,0,.7,0,1.1,0,10.6,0,21.1,0,31.7,0,1.4-.5,1.8-1.8,1.8-2.2,0-4.4,0-6.5,0-1,0-1.3-.3-1.3-1.3,0-14.9,0-29.8,0-44.6,0-1.2.4-1.6,1.6-1.5,4.1,0,8.3,0,12.4,0,1.3,0,2,.4,2.3,1.7,2.2,7.8,4.4,15.6,6.6,23.5.5,1.8.9,3.5,1.5,5.7.5-.7.8-1,1-1.3,1.3-4.5,2.5-9.1,3.8-13.7,1.4-4.9,2.8-9.8,4.1-14.7.3-.9.8-1.2,1.7-1.2,4.3,0,8.6,0,12.9,0,1.2,0,1.7.5,1.7,1.7,0,14.8,0,29.6,0,44.3,0,1.1-.4,1.4-1.4,1.4-2.3,0-4.6,0-7,0-1.1,0-1.4-.5-1.4-1.5,0-9.9,0-19.8,0-29.7,0-.7,0-1.4-.1-2.1h-.7q0,0,0,0Z"/>
    <path class="cls-1" d="M566.9,103.7c0-3.6,0-7.3,0-10.9,0-1.7-.4-3.2-1.4-4.6-4.1-5.9-8.1-11.7-12.2-17.6-3.9-5.8-7.9-11.6-11.8-17.4-.5-.8-.4-1.3.6-1.3,4.9,0,9.9,0,14.8,0,.5,0,1.1.5,1.4,1,3.7,5.7,7.3,11.4,11,17,1.4,2.2,2.8,4.4,4.2,6.6.8,1.2,1.3.3,1.6-.3,1.8-2.7,3.5-5.5,5.2-8.3,3.2-5,6.3-10,9.5-15,.4-.6,1.3-1,1.9-1,4.6,0,9.3,0,13.9,0,.4,0,.8.2,1.2.3-.1.4-.2.8-.4,1.1-6.7,9.9-13.4,19.8-20.2,29.7-1.4,2.1-2.9,4.1-4.2,6.2-.5.8-.8,1.7-.8,2.6,0,8.1,0,16.2,0,24.3,0,1.2-.3,1.7-1.6,1.6-3.7,0-7.5,0-11.2,0-1.3,0-1.7-.4-1.7-1.7,0-4.1,0-8.2,0-12.4Z"/>
    <path class="cls-1" d="M497.5,84.9c0-10.3,0-20.6,0-30.8,0-2,0-2,2-2,3.5,0,7,0,10.5,0,1.7,0,1.9.2,1.9,1.9,0,16.9,0,33.8,0,50.7,0,1.8,0,1.8,1.8,1.8,10.7,0,21.3,0,32,0,1.4,0,2,.7,2,2.1,0,2.5,0,4.9,0,7.4,0,1.2-.4,1.7-1.6,1.7-4.1,0-8.2,0-12.2,0-11.5,0-23,0-34.6,0-1.9,0-1.8,0-1.8-1.8,0-10.3,0-20.7,0-31h0Z"/>
    <path class="cls-1" d="M315.6,160.9c.3.4.5.7.8.9,3.9,2.3,6.3,6.1,8.8,9.7,2,2.9,4,5.9,5.9,8.8.2.3.4.8.3,1-.1.2-.6.3-1,.3-3.4,0-6.8,0-10.2,0-.6,0-1.4-.6-1.8-1.1-3.7-5-7.3-10.1-11-15.1-1.7-2.3-4-3.4-6.9-3.3-.8,0-1.5,0-2.3,0-1.6,0-1.8,0-1.8,1.7,0,5.4,0,10.9,0,16.3,0,1.1-.3,1.6-1.5,1.6-2.5,0-4.9,0-7.4,0-1,0-1.5-.3-1.5-1.4,0-14.7,0-29.5,0-44.2,0-1.4.5-1.8,1.8-1.8,8.2,0,16.4,0,24.6,0,3.7,0,7.5.5,10.6,3,3,2.4,4.7,5.5,4.8,9.5,0,3.1-.3,6-2.3,8.6-2.2,2.7-5,4.2-8.3,5-.3,0-.7.1-1,.2-.1,0-.2.1-.6.3h0ZM296.3,148.4c0,1.6,0,3.1,0,4.7,0,.9.3,1.4,1.2,1.4,4.7-.1,9.5-.1,14.2-.4,2.2-.1,4.3-1.2,4.9-3.5,1.2-4.4-.4-7.3-5-7.8-4.6-.4-9.4-.3-14-.3-.9,0-1.2.4-1.2,1.4,0,1.5,0,3,0,4.5h0Z"/>
    <path class="cls-1" d="M224.5,158.2c0,7.3,0,14.6,0,21.9,0,1.3-.4,1.6-1.6,1.6-2.4,0-4.8,0-7.3,0-1.1,0-1.5-.3-1.5-1.5,0-5.8,0-11.6,0-17.3,0-1.8,0-1.8-1.8-1.8-5.5,0-11,0-16.5,0-1.9,0-1.9,0-1.9,1.9,0,5.7,0,11.5,0,17.2,0,1.1-.3,1.5-1.5,1.5-2.5,0-5,0-7.5,0-1,0-1.4-.3-1.4-1.4,0-14.8,0-29.6,0-44.3,0-1.2.4-1.7,1.6-1.7,2.4,0,4.7,0,7.1,0,1.3,0,1.7.5,1.6,1.7,0,5,0,10,0,15.1,0,1.4.5,1.8,1.8,1.8,5.6,0,11.3,0,16.9,0,1.3,0,1.6-.5,1.6-1.7,0-5,0-10,0-15.1,0-1.8,0-1.8,1.9-1.8,2.1,0,4.3,0,6.4,0,2,0,2,0,2,1.9,0,7.3,0,14.7,0,22h0Z"/>
    <path class="cls-1" d="M442.2,181.5c-.7,0-1.2.2-1.7.2-2.5,0-5,0-7.5,0-1.7,0-2.9-.8-3.5-2.3-.9-2.3-1.8-4.6-2.7-7-.4-.9-.9-1.3-1.9-1.3-5.7,0-11.5,0-17.2,0-1,0-1.4.5-1.7,1.2-1,2.7-2.1,5.4-3.1,8.1-.3.9-.7,1.3-1.7,1.3-3,0-6.1,0-9.1,0-1.1,0-1.3-.3-.8-1.4,1.6-3.8,3.2-7.7,4.7-11.5,1.8-4.5,3.6-9,5.4-13.5,2.2-5.4,4.4-10.7,6.6-16.1.5-1.3,1-2.7,1.7-3.9.2-.5,1-.9,1.5-.9,3.2,0,6.3,0,9.5,0,.9,0,1.5.3,1.9,1.2,3.6,8.5,7.3,17,10.9,25.5,2.7,6.3,5.3,12.6,8,18.9.2.4.4.8.8,1.6h0ZM416.4,146.5c-.1,0-.3,0-.4,0-.2.4-.5.8-.6,1.2-1.8,4.7-3.6,9.4-5.4,14.1-.4,1.1.1,1.3,1.1,1.3,3.5,0,6.9,0,10.4,0,1.5,0,1.6-.2,1-1.7-1.1-2.7-2.2-5.4-3.3-8.1-.9-2.2-1.8-4.4-2.7-6.6h0Z"/>
    <path class="cls-1" d="M280.8,181.5c-.5,0-1,.2-1.4.2-2.9,0-5.9,0-8.8,0-1,0-1.5-.3-1.9-1.3-1-2.7-2.2-5.3-3.2-8-.4-.9-.9-1.3-1.9-1.3-5.7,0-11.5,0-17.2,0-1,0-1.4.5-1.7,1.2-1,2.7-2.1,5.4-3.1,8.1-.3.9-.7,1.4-1.7,1.3-3,0-6.1,0-9.1,0-1.1,0-1.3-.3-.9-1.4,1.6-3.9,3.2-7.8,4.8-11.6,1.8-4.5,3.6-9,5.4-13.5,2.1-5.2,4.3-10.5,6.4-15.7.6-1.4,1.1-2.8,1.8-4.2.2-.5.9-.9,1.4-1,3.2,0,6.3,0,9.5,0,1,0,1.5.4,1.9,1.3,2.4,5.7,4.9,11.5,7.3,17.2,2.4,5.7,4.8,11.5,7.2,17.2,1.6,3.8,3.2,7.5,5,11.4h0ZM255,146.5c-.1,0-.3,0-.4,0-.3.6-.6,1.1-.8,1.7-1.7,4.5-3.4,9-5.2,13.5-.4,1.1,0,1.4,1.1,1.4,3.4,0,6.8,0,10.2,0,1.7,0,1.8-.2,1.1-1.8-1.1-2.7-2.2-5.3-3.2-8-.9-2.2-1.8-4.4-2.7-6.6Z"/>
    <path class="cls-1" d="M135.8,158c0-7.2,0-14.5,0-21.7,0-1.8.2-1.9,2-1.9,7.2,0,14.3,0,21.5,0,4.2,0,8.3.7,11.6,3.8,2.6,2.5,4.2,5.6,4.2,9.3,0,2.4.2,4.8-.8,7.1-1.9,4.6-5.3,7.5-10.2,8.5-5.3,1.2-10.6.5-15.9.7-2,0-2,0-2,2,0,4.8,0,9.7,0,14.5,0,1.1-.4,1.5-1.5,1.5-2.5,0-4.9,0-7.4,0-1.2,0-1.5-.4-1.5-1.6,0-7.4,0-14.8,0-22.2h0ZM146.1,149c0,1.7,0,3.3,0,5,0,1.3.5,1.8,1.8,1.8,2.9-.1,5.9-.1,8.8-.3,1.4-.1,2.9-.5,4.2-1,2.3-.9,3.6-3.5,3.3-6.3-.2-2.1-2.1-4.3-4.2-4.8-4.2-1.1-8.5-.6-12.7-.8-.8,0-1.1.5-1.1,1.3,0,1.7,0,3.5,0,5.3h0Z"/>
    <path class="cls-1" d="M445.6,158.4c-.3-5.8.9-11,4.1-15.7,3.4-5,8.1-7.9,14.1-8.9,4.2-.7,8.4-.8,12.4.2,6,1.5,10.8,4.8,13.1,10.9.1.4.4.7.5,1.1.2.7,0,1.3-.8,1.5-2.5.6-5.1,1.1-7.6,1.8-1.1.3-1.7,0-2.1-1.1-2.8-7.8-14.2-8.3-19.2-2.9-2.2,2.3-3.3,5.2-3.4,8.2-.2,4.1-.4,8.3.7,12.4,1.3,4.6,5.5,7.9,10.2,8.2,4.9.2,8.5-1.6,10.7-5.9.5-.9.8-1.9,1.2-2.9.3-.8.8-1,1.5-.8,2.7.8,5.4,1.6,8.1,2.5.4.1.8,1,.7,1.4-2,5.7-5.2,10.4-11.2,12.5-6.6,2.4-13.3,2.4-19.8-.1-5.7-2.2-9.4-6.5-11.7-12.1-1.4-3.4-1.8-6.9-1.6-10.4h0Z"/>
    <path class="cls-1" d="M493.5,134.4c.8,0,1.2,0,1.6,0,2.3,0,4.6,0,6.8,0,4.5,0,3.3-.5,5.9,3.4,2.9,4.4,5.8,8.9,8.6,13.4.7,1,1.2.7,1.7,0,2.9-4.5,5.7-9,8.5-13.6.4-.6.7-1.4,1.2-1.9.6-.5,1.4-1.1,2.1-1.1,3.1-.1,6.2,0,9.2,0,.4,0,.8.2,1.2.3-.1.4-.2.9-.4,1.3-5.6,8.3-11.3,16.5-16.9,24.8-.5.7-.7,1.6-.7,2.5,0,5.7,0,11.4,0,17.1,0,1.2-.4,1.6-1.5,1.6-2.4,0-4.8,0-7.3,0-1.2,0-1.7-.4-1.6-1.6,0-5,0-10,0-15.1,0-2.4-.6-4.2-1.9-6.1-5.3-7.5-10.4-15.1-15.6-22.7-.3-.5-.6-1.1-1-1.9h0Z"/>
    <path class="cls-4" d="M157.7,151.6h0s0,0,0,0c0,0,0,0,0,0h0s0,0,0,0Z"/>
    <polygon class="cls-2" points="157.7 151.6 157.7 151.6 157.7 151.6 157.7 151.6 157.7 151.6 157.7 151.6"/>
    <path class="cls-1" d="M488.1,117.3c-.5,0-.9.1-1.3.1-4.6,0-9.2,0-13.8,0-.7,0-1.7-.5-2.1-1.1-5-6.7-9.8-13.5-14.8-20.2-1.8-2.5-4.1-4.6-7.1-5.7-.5-.2-1.1-.3-1.7-.3-2.3-.1-4.6-.3-6.9-.3-1.5,0-1.8.4-1.8,1.9,0,8.1,0,16.3.1,24.4,0,.9-.3,1.3-1.2,1.3-3.7,0-7.4,0-11.1,0-1.2,0-1.1-.6-1.1-1.5,0-18.5,0-37,0-55.4,0-2.3,0-4.6,0-7,0-.9.2-1.4,1.2-1.4,12.5,0,24.9-.1,37.4.1,4.1,0,8.4.9,11.9,3.4,3,2.2,5.1,4.9,6.3,8.6,1,3.1.9,6.1.6,9.1-.5,4.5-2.8,8.3-6.7,10.7-2.1,1.3-4.4,2.2-6.7,3.2-.9.4-2,.3-3,.6-.5.1-.9.6-1.3.9.4.4.7.8,1.1,1,3.6,2.2,6.7,4.9,9.1,8.4,4.2,6.1,8.4,12.1,12.7,18.2.1.2.1.4.2.8ZM439.1,71.3c0,2.2,0,4.5,0,6.7,0,1.7.2,1.9,1.9,1.9,4,0,8-.2,12.1-.3,2.6,0,5.2,0,7.8-.3,3.4-.3,6.2-1.8,7.3-5.4,1.7-5.4-1.3-10.2-6.9-10.6-6.8-.5-13.7-.3-20.6-.4-1.1,0-1.5.5-1.5,1.5,0,2.3,0,4.5,0,6.8h0Z"/>
    <path class="cls-1" d="M358.5,84.8c0-10.4,0-20.7,0-31.1,0-1.2.4-1.6,1.6-1.6,16.4,0,32.8,0,49.2,0,1.4,0,1.8.3,1.7,1.8-.2,2.3-.1,4.6,0,7,0,1.4-.3,1.9-1.8,1.8-11.3,0-22.6,0-33.9,0-3,0-3.1,0-3.1,3.1,0,3.3,0,6.5,0,9.8,0,2.2.1,2.3,2.4,2.3,10.4,0,20.8,0,31.1,0,.4,0,.8,0,1.1,0,1,0,1.3.2,1.3,1.4-.2,2.5-.2,5.1,0,7.7.1,1.6-.5,1.6-1.6,1.6-7.4,0-14.8,0-22.2,0-3.3,0-6.6,0-10,0-2,0-2.1.2-2.1,2.1,0,4.6,0,9.3,0,13.9,0,2.2,0,2.3,2.3,2.3,11.9,0,23.8,0,35.7,0,1.4,0,2,.7,2,2,0,2.4,0,4.7,0,7.1,0,1.2-.3,1.6-1.5,1.6-6.4,0-12.8,0-19.2,0-10.4,0-20.9,0-31.3,0-1.3,0-1.8-.4-1.8-1.8,0-10.3,0-20.7,0-31h0Z"/>
  </g>
  <g id="Layer_7" data-name="Layer 7">
    <path class="cls-5" d="M132.4,39.1l-.3,1.7-2.3,13.7-17.7,105.9-1,5.9H27.1l-1.1-5.9L3.6,41.1l-.4-1.9c0-6,10.6-11.4,26.8-14.7l-.4-.6c-3.7.6-7.5-1.4-8.9-5l-2.5-6.1c-.8-2,.3-3.9,1.9-5.2,4.6-3.6,9.5-5.4,14.6-5.9,2.8-.3,5.5.5,6.6,3.2l2.2,5.6c1.2,3.1.3,6.6-2.1,8.8l2.8,3.1c7.3-.8,15.2-1.2,23.5-1.2,35.6,0,64.5,8.1,64.5,18.1Z"/>
    <polygon class="cls-2" points="122.2 54.5 105.7 160.5 86 160.5 68.1 116.8 51.3 160.5 32.1 160.5 15.1 54.5 32.7 54.5 44.2 146.6 62.2 95.5 74.8 95.5 94.9 147 106.1 54.5 122.2 54.5"/>
    <path class="cls-3" d="M67.8,21c-8.3,0-16.2.4-23.5,1.2l4.8,5.4c5.9-.4,12.1-.6,18.7-.6,32.2,0,58.4,5.4,58.4,12.1s-25,11.8-56.3,12c-.7,0-1.4,0-2.1,0-6.5,0-12.7-.2-18.5-.6-6.3-.4-12.2-1.1-17.3-1.9-13.7-2.2-22.5-5.7-22.5-9.5s9.5-7.6,24.2-9.8l-3.6-4.9c-16.2,3.3-26.8,8.6-26.8,14.7l.4,1.9,22.4,119.4,1.1,5.9h84l1-5.9,17.7-105.9,2.3-13.7.3-1.7c0-10-28.9-18.1-64.5-18.1ZM67.8,57.3c11.7,0,22.8-.9,32.2-2.4l-8.4,67.1-11.8-30.5c-.6-1.6-2.2-2.7-4-2.7h-14.8c-1.8,0-3.4,1.1-4,2.8l-10.6,29.2-8.6-65.5c8.9,1.3,19,2,29.8,2ZM58.2,160.1l10.2-25.5,10.5,25.5h-20.7ZM105.7,160.5h-19.7l-17.9-43.7-16.8,43.7h-19.2L15.1,54.5h17.6l11.5,92.1,18-51.2h12.6l20.1,51.5,11.2-92.4h16.1l-16.5,105.9Z"/>
    <path class="cls-2" d="M110.6,169.4l-.4-.8H25.5c-.8,0-1.5.4-1.9,1.1l-4.7,8.8c-.8,1.4.3,3.1,1.9,3.1h93.3c1.6,0,2.7-1.8,1.8-3.2l-5.2-9.1ZM23.7,175.8l1.4-3c.3-.7,1.1-1.2,1.9-1.2h81.1c.8,0,1.6.5,1.9,1.2h0l1.4,3c.7,1.4-.4,3-1.9,3H25.7c-1.6,0-2.6-1.6-1.9-3Z"/>
    <path class="cls-3" d="M109.6,178.9H25.7c-1.6,0-2.6-1.6-1.9-3l1.4-3c.3-.7,1.1-1.2,1.9-1.2h81.1c.8,0,1.6.5,1.9,1.2h0l1.4,3c.7,1.4-.4,3-1.9,3Z"/>
    <path class="cls-2" d="M120,185.7H18.5c-.8,0-1.5.4-1.9,1.1l-4.6,8.8c-.7,1.4.3,3.1,1.9,3.1h110.7c1.6,0,2.6-1.7,1.9-3.1l-4.6-8.8c-.4-.7-1.1-1.1-1.9-1.1h0ZM17,192.7l1.7-3c.4-.7,1.1-1.1,1.9-1.1h97.7c.8,0,1.5.4,1.9,1.1l1.7,3c.8,1.4-.2,3.2-1.9,3.2H18.8c-1.6,0-2.6-1.7-1.9-3.2Z"/>
    <path class="cls-3" d="M119.9,195.8H18.8c-1.6,0-2.6-1.7-1.9-3.2l1.7-3c.4-.7,1.1-1.1,1.9-1.1h97.7c.8,0,1.5.4,1.9,1.1l1.7,3c.8,1.4-.2,3.2-1.9,3.2Z"/>
    <path class="cls-2" d="M69.9,51.2c-.7,0-1.4,0-2.1,0-6.5,0-12.7-.2-18.5-.6l-15.6-21.2-3.6-4.9-.4-.6c-3.7.6-7.5-1.4-8.9-5l-2.5-6.1c-.8-2,.3-3.9,1.9-5.2,4.6-3.6,9.5-5.4,14.6-5.9,2.8-.3,5.6.5,6.6,3.2l2.2,5.6c1.2,3.1.3,6.6-2.1,8.8l2.8,3.1,4.8,5.4,20.8,23.5Z"/>
  </g>
</svg>